<mxfile host="Electron" agent="Mozilla/5.0 (X11; Linux x86_64) AppleWebKit/537.36 (KHTML, like Gecko) draw.io/26.1.1 Chrome/132.0.6834.210 Electron/34.3.2 Safari/537.36" version="26.1.1">
  <diagram name="Seite-1" id="uFwv4ToZ-_wLGTjwJqAc">
    <mxGraphModel dx="1121" dy="1033" grid="1" gridSize="10" guides="1" tooltips="1" connect="1" arrows="1" fold="1" page="1" pageScale="1" pageWidth="827" pageHeight="1169" math="0" shadow="0">
      <root>
        <mxCell id="0" />
        <mxCell id="1" parent="0" />
        <mxCell id="xSxSrdGMljulqEhlzFFl-1" value="Frontends" style="whiteSpace=wrap;rounded=0;shadow=0;dashed=0;strokeWidth=1;fillColor=#E6E6E6;fontFamily=Helvetica;fontSize=18;strokeColor=none;verticalAlign=middle;spacingTop=0;align=center;labelPosition=center;verticalLabelPosition=middle;html=1;spacingBottom=415;" parent="1" vertex="1">
          <mxGeometry x="40" y="30" width="160" height="460" as="geometry" />
        </mxCell>
        <mxCell id="xSxSrdGMljulqEhlzFFl-2" value="Chat-Frontend" style="html=1;shadow=0;dashed=0;align=center;verticalAlign=middle;shape=mxgraph.arrows2.arrow;dy=0;dx=0;notch=0;rounded=0;strokeColor=none;strokeWidth=1;fillColor=#7FB61A;fontFamily=Helvetica;fontSize=12;fontColor=#FFFFFF;gradientColor=none;gradientDirection=east;fillStyle=auto;" parent="1" vertex="1">
          <mxGeometry x="70" y="140" width="100" height="30" as="geometry" />
        </mxCell>
        <mxCell id="xSxSrdGMljulqEhlzFFl-5" value="Fachverfahren" style="html=1;shadow=0;dashed=0;align=center;verticalAlign=middle;shape=mxgraph.arrows2.arrow;dy=0;dx=0;notch=0;rounded=0;strokeColor=none;strokeWidth=1;fillColor=#7FB61A;fontFamily=Helvetica;fontSize=12;fontColor=#FFFFFF;gradientColor=none;gradientDirection=east;" parent="1" vertex="1">
          <mxGeometry x="70" y="190" width="100" height="30" as="geometry" />
        </mxCell>
        <mxCell id="xSxSrdGMljulqEhlzFFl-6" value="Office-Plugins" style="html=1;shadow=0;dashed=0;align=center;verticalAlign=middle;shape=mxgraph.arrows2.arrow;dy=0;dx=0;notch=0;rounded=0;strokeColor=none;strokeWidth=1;fillColor=#7FB61A;fontFamily=Helvetica;fontSize=12;fontColor=#FFFFFF;gradientColor=none;gradientDirection=east;" parent="1" vertex="1">
          <mxGeometry x="70" y="240" width="100" height="30" as="geometry" />
        </mxCell>
        <mxCell id="xSxSrdGMljulqEhlzFFl-7" value="Admin-Frontend" style="html=1;shadow=0;dashed=0;align=center;verticalAlign=middle;shape=mxgraph.arrows2.arrow;dy=0;dx=0;notch=0;rounded=0;strokeColor=none;strokeWidth=1;fillColor=#7FB61A;fontFamily=Helvetica;fontSize=12;fontColor=#FFFFFF;gradientColor=none;gradientDirection=east;" parent="1" vertex="1">
          <mxGeometry x="70" y="290" width="100" height="30" as="geometry" />
        </mxCell>
        <mxCell id="xSxSrdGMljulqEhlzFFl-8" value="Services" style="whiteSpace=wrap;rounded=0;shadow=0;dashed=0;strokeWidth=1;fillColor=#E6E6E6;fontFamily=Helvetica;fontSize=18;strokeColor=none;verticalAlign=middle;spacingTop=0;align=center;labelPosition=center;verticalLabelPosition=middle;html=1;spacingBottom=415;" parent="1" vertex="1">
          <mxGeometry x="240" y="30" width="230" height="460" as="geometry" />
        </mxCell>
        <mxCell id="xSxSrdGMljulqEhlzFFl-66" value="" style="edgeStyle=orthogonalEdgeStyle;rounded=0;orthogonalLoop=1;jettySize=auto;html=1;strokeColor=#F19001;fontSize=12;" parent="1" source="xSxSrdGMljulqEhlzFFl-9" target="xSxSrdGMljulqEhlzFFl-32" edge="1">
          <mxGeometry relative="1" as="geometry">
            <Array as="points">
              <mxPoint x="500" y="155" />
              <mxPoint x="500" y="200" />
            </Array>
          </mxGeometry>
        </mxCell>
        <mxCell id="xSxSrdGMljulqEhlzFFl-9" value="Model Context Protocol Server" style="html=1;shadow=0;dashed=0;align=center;verticalAlign=middle;shape=mxgraph.arrows2.arrow;dy=0;dx=0;notch=0;rounded=0;strokeColor=none;strokeWidth=1;fillColor=#5398DB;fontFamily=Helvetica;fontSize=12;fontColor=#FFFFFF;gradientColor=none;gradientDirection=east;whiteSpace=wrap;" parent="1" vertex="1">
          <mxGeometry x="340" y="140" width="100" height="30" as="geometry" />
        </mxCell>
        <mxCell id="xSxSrdGMljulqEhlzFFl-10" value="Tools" style="html=1;shadow=0;dashed=0;align=center;verticalAlign=middle;shape=mxgraph.arrows2.arrow;dy=0;dx=0;notch=0;rounded=0;strokeColor=none;strokeWidth=1;fillColor=#5398DB;fontFamily=Helvetica;fontSize=12;fontColor=#FFFFFF;gradientColor=none;gradientDirection=east;whiteSpace=wrap;" parent="1" vertex="1">
          <mxGeometry x="340" y="190" width="100" height="30" as="geometry" />
        </mxCell>
        <mxCell id="xSxSrdGMljulqEhlzFFl-11" value="Task Based &lt;br&gt;Services" style="html=1;shadow=0;dashed=0;align=center;verticalAlign=middle;shape=mxgraph.arrows2.arrow;dy=0;dx=0;notch=0;rounded=0;strokeColor=none;strokeWidth=1;fillColor=#5398DB;fontFamily=Helvetica;fontSize=12;fontColor=#FFFFFF;gradientColor=none;gradientDirection=east;whiteSpace=wrap;" parent="1" vertex="1">
          <mxGeometry x="340" y="240" width="100" height="30" as="geometry" />
        </mxCell>
        <mxCell id="xSxSrdGMljulqEhlzFFl-49" style="edgeStyle=orthogonalEdgeStyle;rounded=0;orthogonalLoop=1;jettySize=auto;html=1;strokeColor=#8D029D;fontSize=12;" parent="1" source="xSxSrdGMljulqEhlzFFl-12" target="xSxSrdGMljulqEhlzFFl-44" edge="1">
          <mxGeometry relative="1" as="geometry">
            <Array as="points">
              <mxPoint x="490" y="305" />
              <mxPoint x="490" y="340" />
            </Array>
          </mxGeometry>
        </mxCell>
        <mxCell id="xSxSrdGMljulqEhlzFFl-12" value="Agents" style="html=1;shadow=0;dashed=0;align=center;verticalAlign=middle;shape=mxgraph.arrows2.arrow;dy=0;dx=0;notch=0;rounded=0;strokeColor=none;strokeWidth=1;fillColor=#5398DB;fontFamily=Helvetica;fontSize=12;fontColor=#FFFFFF;gradientColor=none;gradientDirection=east;whiteSpace=wrap;" parent="1" vertex="1">
          <mxGeometry x="340" y="290" width="100" height="30" as="geometry" />
        </mxCell>
        <mxCell id="xSxSrdGMljulqEhlzFFl-13" value="RAG" style="html=1;shadow=0;dashed=0;align=center;verticalAlign=middle;shape=mxgraph.arrows2.arrow;dy=0;dx=0;notch=0;rounded=0;strokeColor=none;strokeWidth=1;fillColor=#5398DB;fontFamily=Helvetica;fontSize=12;fontColor=#FFFFFF;gradientColor=none;gradientDirection=east;whiteSpace=wrap;" parent="1" vertex="1">
          <mxGeometry x="340" y="90" width="100" height="30" as="geometry" />
        </mxCell>
        <mxCell id="xSxSrdGMljulqEhlzFFl-14" value="Orchestration" style="html=1;shadow=0;dashed=0;align=center;verticalAlign=middle;shape=mxgraph.arrows2.arrow;dy=0;dx=0;notch=0;rounded=0;strokeColor=none;strokeWidth=1;fillColor=#5398DB;fontFamily=Helvetica;fontSize=12;fontColor=#FFFFFF;gradientColor=none;gradientDirection=east;whiteSpace=wrap;" parent="1" vertex="1">
          <mxGeometry x="340" y="340" width="100" height="30" as="geometry" />
        </mxCell>
        <mxCell id="xSxSrdGMljulqEhlzFFl-15" value="API Gateway" style="html=1;shadow=0;dashed=0;align=center;verticalAlign=middle;shape=mxgraph.arrows2.arrow;dy=0;dx=0;notch=0;rounded=0;strokeColor=none;strokeWidth=1;fillColor=#5398DB;fontFamily=Helvetica;fontSize=12;fontColor=#FFFFFF;gradientColor=none;gradientDirection=east;textDirection=vertical-rl;labelPosition=center;verticalLabelPosition=middle;rotation=-180;spacingBottom=0;spacingLeft=0;spacingTop=140;" parent="1" vertex="1">
          <mxGeometry x="260" y="90" width="40" height="280" as="geometry" />
        </mxCell>
        <mxCell id="xSxSrdGMljulqEhlzFFl-16" value="Service Registry" style="html=1;shadow=0;dashed=0;align=center;verticalAlign=middle;shape=mxgraph.arrows2.arrow;dy=0;dx=0;notch=0;rounded=0;strokeColor=none;strokeWidth=1;fillColor=#5398DB;fontFamily=Helvetica;fontSize=12;fontColor=#FFFFFF;gradientColor=none;gradientDirection=east;whiteSpace=wrap;" parent="1" vertex="1">
          <mxGeometry x="300" y="400" width="70" height="30" as="geometry" />
        </mxCell>
        <mxCell id="xSxSrdGMljulqEhlzFFl-17" value="Load &lt;br&gt;Balancer" style="html=1;shadow=0;dashed=0;align=center;verticalAlign=middle;shape=mxgraph.arrows2.arrow;dy=0;dx=0;notch=0;rounded=0;strokeColor=none;strokeWidth=1;fillColor=#5398DB;fontFamily=Helvetica;fontSize=12;fontColor=#FFFFFF;gradientColor=none;gradientDirection=east;whiteSpace=wrap;" parent="1" vertex="1">
          <mxGeometry x="300" y="440" width="70" height="30" as="geometry" />
        </mxCell>
        <mxCell id="xSxSrdGMljulqEhlzFFl-18" style="edgeStyle=orthogonalEdgeStyle;rounded=0;orthogonalLoop=1;jettySize=auto;html=1;exitX=0;exitY=0;exitDx=50;exitDy=0;exitPerimeter=0;entryX=0;entryY=0;entryDx=50;entryDy=30;entryPerimeter=0;fontSize=12;" parent="1" source="xSxSrdGMljulqEhlzFFl-14" target="xSxSrdGMljulqEhlzFFl-12" edge="1">
          <mxGeometry relative="1" as="geometry" />
        </mxCell>
        <mxCell id="xSxSrdGMljulqEhlzFFl-19" style="edgeStyle=orthogonalEdgeStyle;rounded=0;orthogonalLoop=1;jettySize=auto;html=1;exitX=0;exitY=0;exitDx=50;exitDy=30;exitPerimeter=0;entryX=0;entryY=0;entryDx=50;entryDy=0;entryPerimeter=0;fontSize=12;" parent="1" source="xSxSrdGMljulqEhlzFFl-13" target="xSxSrdGMljulqEhlzFFl-9" edge="1">
          <mxGeometry relative="1" as="geometry" />
        </mxCell>
        <mxCell id="xSxSrdGMljulqEhlzFFl-20" style="edgeStyle=orthogonalEdgeStyle;rounded=0;orthogonalLoop=1;jettySize=auto;html=1;exitX=0;exitY=0;exitDx=50;exitDy=30;exitPerimeter=0;entryX=0;entryY=0;entryDx=50;entryDy=0;entryPerimeter=0;fontSize=12;" parent="1" source="xSxSrdGMljulqEhlzFFl-9" target="xSxSrdGMljulqEhlzFFl-10" edge="1">
          <mxGeometry relative="1" as="geometry" />
        </mxCell>
        <mxCell id="xSxSrdGMljulqEhlzFFl-21" style="edgeStyle=orthogonalEdgeStyle;rounded=0;orthogonalLoop=1;jettySize=auto;html=1;exitX=1;exitY=0.5;exitDx=0;exitDy=0;exitPerimeter=0;entryX=1.025;entryY=0.767;entryDx=0;entryDy=0;entryPerimeter=0;fontSize=12;" parent="1" source="xSxSrdGMljulqEhlzFFl-2" target="xSxSrdGMljulqEhlzFFl-15" edge="1">
          <mxGeometry relative="1" as="geometry" />
        </mxCell>
        <mxCell id="xSxSrdGMljulqEhlzFFl-22" style="edgeStyle=orthogonalEdgeStyle;rounded=0;orthogonalLoop=1;jettySize=auto;html=1;exitX=1;exitY=0.5;exitDx=0;exitDy=0;exitPerimeter=0;entryX=1.003;entryY=0.588;entryDx=0;entryDy=0;entryPerimeter=0;fontSize=12;" parent="1" source="xSxSrdGMljulqEhlzFFl-5" target="xSxSrdGMljulqEhlzFFl-15" edge="1">
          <mxGeometry relative="1" as="geometry" />
        </mxCell>
        <mxCell id="xSxSrdGMljulqEhlzFFl-23" style="edgeStyle=orthogonalEdgeStyle;rounded=0;orthogonalLoop=1;jettySize=auto;html=1;exitX=1;exitY=0.5;exitDx=0;exitDy=0;exitPerimeter=0;entryX=1;entryY=0.408;entryDx=0;entryDy=0;entryPerimeter=0;fontSize=12;" parent="1" source="xSxSrdGMljulqEhlzFFl-6" target="xSxSrdGMljulqEhlzFFl-15" edge="1">
          <mxGeometry relative="1" as="geometry" />
        </mxCell>
        <mxCell id="xSxSrdGMljulqEhlzFFl-24" style="edgeStyle=orthogonalEdgeStyle;rounded=0;orthogonalLoop=1;jettySize=auto;html=1;entryX=0.981;entryY=0.229;entryDx=0;entryDy=0;entryPerimeter=0;fontSize=12;" parent="1" source="xSxSrdGMljulqEhlzFFl-7" target="xSxSrdGMljulqEhlzFFl-15" edge="1">
          <mxGeometry relative="1" as="geometry" />
        </mxCell>
        <mxCell id="xSxSrdGMljulqEhlzFFl-25" style="edgeStyle=orthogonalEdgeStyle;rounded=0;orthogonalLoop=1;jettySize=auto;html=1;exitX=0;exitY=0.5;exitDx=0;exitDy=0;exitPerimeter=0;entryX=0;entryY=0.5;entryDx=0;entryDy=0;entryPerimeter=0;fontSize=12;" parent="1" source="xSxSrdGMljulqEhlzFFl-15" target="xSxSrdGMljulqEhlzFFl-9" edge="1">
          <mxGeometry relative="1" as="geometry">
            <Array as="points">
              <mxPoint x="320" y="230" />
              <mxPoint x="320" y="155" />
            </Array>
          </mxGeometry>
        </mxCell>
        <mxCell id="xSxSrdGMljulqEhlzFFl-26" style="edgeStyle=orthogonalEdgeStyle;rounded=0;orthogonalLoop=1;jettySize=auto;html=1;exitX=0;exitY=0.5;exitDx=0;exitDy=0;exitPerimeter=0;entryX=0;entryY=0.5;entryDx=0;entryDy=0;entryPerimeter=0;fontSize=12;" parent="1" source="xSxSrdGMljulqEhlzFFl-15" target="xSxSrdGMljulqEhlzFFl-13" edge="1">
          <mxGeometry relative="1" as="geometry">
            <Array as="points">
              <mxPoint x="320" y="230" />
              <mxPoint x="320" y="105" />
            </Array>
          </mxGeometry>
        </mxCell>
        <mxCell id="xSxSrdGMljulqEhlzFFl-27" style="edgeStyle=orthogonalEdgeStyle;rounded=0;orthogonalLoop=1;jettySize=auto;html=1;exitX=0;exitY=0.5;exitDx=0;exitDy=0;exitPerimeter=0;fontSize=12;" parent="1" source="xSxSrdGMljulqEhlzFFl-15" edge="1">
          <mxGeometry relative="1" as="geometry">
            <mxPoint x="340" y="256" as="targetPoint" />
            <Array as="points">
              <mxPoint x="320" y="230" />
              <mxPoint x="320" y="256" />
            </Array>
          </mxGeometry>
        </mxCell>
        <mxCell id="xSxSrdGMljulqEhlzFFl-28" style="edgeStyle=orthogonalEdgeStyle;rounded=0;orthogonalLoop=1;jettySize=auto;html=1;exitX=0;exitY=0.5;exitDx=0;exitDy=0;exitPerimeter=0;entryX=0;entryY=0.5;entryDx=0;entryDy=0;entryPerimeter=0;startArrow=classic;startFill=1;fontSize=12;" parent="1" source="xSxSrdGMljulqEhlzFFl-15" target="xSxSrdGMljulqEhlzFFl-12" edge="1">
          <mxGeometry relative="1" as="geometry">
            <Array as="points">
              <mxPoint x="320" y="230" />
              <mxPoint x="320" y="305" />
            </Array>
          </mxGeometry>
        </mxCell>
        <mxCell id="xSxSrdGMljulqEhlzFFl-29" style="edgeStyle=orthogonalEdgeStyle;rounded=0;orthogonalLoop=1;jettySize=auto;html=1;entryX=0;entryY=0.5;entryDx=0;entryDy=0;entryPerimeter=0;startArrow=none;startFill=0;endArrow=none;fontSize=12;" parent="1" source="xSxSrdGMljulqEhlzFFl-15" target="xSxSrdGMljulqEhlzFFl-16" edge="1">
          <mxGeometry relative="1" as="geometry" />
        </mxCell>
        <mxCell id="xSxSrdGMljulqEhlzFFl-30" style="edgeStyle=orthogonalEdgeStyle;rounded=0;orthogonalLoop=1;jettySize=auto;html=1;exitX=0;exitY=0;exitDx=20;exitDy=0;exitPerimeter=0;entryX=0;entryY=0.5;entryDx=0;entryDy=0;entryPerimeter=0;endArrow=none;startFill=0;fontSize=12;" parent="1" source="xSxSrdGMljulqEhlzFFl-15" target="xSxSrdGMljulqEhlzFFl-17" edge="1">
          <mxGeometry relative="1" as="geometry" />
        </mxCell>
        <mxCell id="xSxSrdGMljulqEhlzFFl-31" value="Inference" style="whiteSpace=wrap;rounded=0;shadow=0;dashed=0;strokeWidth=1;fillColor=#E6E6E6;fontFamily=Helvetica;fontSize=18;strokeColor=none;verticalAlign=middle;spacingTop=0;align=center;labelPosition=center;verticalLabelPosition=middle;html=1;spacingBottom=205;" parent="1" vertex="1">
          <mxGeometry x="510" y="30" width="270" height="250" as="geometry" />
        </mxCell>
        <mxCell id="xSxSrdGMljulqEhlzFFl-67" style="edgeStyle=orthogonalEdgeStyle;rounded=0;orthogonalLoop=1;jettySize=auto;html=1;endArrow=none;startFill=0;fontSize=12;" parent="1" source="xSxSrdGMljulqEhlzFFl-32" target="xSxSrdGMljulqEhlzFFl-33" edge="1">
          <mxGeometry relative="1" as="geometry" />
        </mxCell>
        <mxCell id="xSxSrdGMljulqEhlzFFl-32" value="OpenAI API" style="html=1;shadow=0;dashed=0;align=center;verticalAlign=middle;shape=mxgraph.arrows2.arrow;dy=0;dx=0;notch=0;rounded=0;strokeColor=none;strokeWidth=1;fillColor=#F19001;fontFamily=Helvetica;fontSize=12;fontColor=#FFFFFF;gradientColor=none;gradientDirection=east;textDirection=vertical-rl;labelPosition=center;verticalLabelPosition=middle;rotation=-180;spacingBottom=0;spacingLeft=0;spacingTop=58;" parent="1" vertex="1">
          <mxGeometry x="530" y="140" width="40" height="120" as="geometry" />
        </mxCell>
        <mxCell id="xSxSrdGMljulqEhlzFFl-33" value="LLM Gateway" style="html=1;shadow=0;dashed=0;align=center;verticalAlign=middle;shape=mxgraph.arrows2.arrow;dy=0;dx=0;notch=0;rounded=0;strokeColor=none;strokeWidth=1;fillColor=#F19001;fontFamily=Helvetica;fontSize=12;fontColor=#FFFFFF;gradientColor=none;gradientDirection=east;textDirection=vertical-rl;labelPosition=center;verticalLabelPosition=middle;rotation=-180;spacingBottom=0;spacingLeft=0;spacingTop=58;" parent="1" vertex="1">
          <mxGeometry x="590" y="140" width="40" height="120" as="geometry" />
        </mxCell>
        <mxCell id="xSxSrdGMljulqEhlzFFl-35" value="Public Model&lt;br&gt;Provider" style="html=1;shadow=0;dashed=0;align=center;verticalAlign=middle;shape=mxgraph.arrows2.arrow;dy=0;dx=0;notch=0;rounded=0;strokeColor=none;strokeWidth=1;fillColor=#F19001;fontFamily=Helvetica;fontSize=12;fontColor=#FFFFFF;gradientColor=none;gradientDirection=east;labelPosition=center;verticalLabelPosition=middle;rotation=0;spacingBottom=0;spacingLeft=0;spacingTop=0;" parent="1" vertex="1">
          <mxGeometry x="650" y="210" width="100" height="30" as="geometry" />
        </mxCell>
        <mxCell id="xSxSrdGMljulqEhlzFFl-36" value="On-Premises &lt;br&gt;Inference Engine" style="html=1;shadow=0;dashed=0;align=center;verticalAlign=middle;shape=mxgraph.arrows2.arrow;dy=0;dx=0;notch=0;rounded=0;strokeColor=none;strokeWidth=1;fillColor=#F19001;fontFamily=Helvetica;fontSize=12;fontColor=#FFFFFF;gradientColor=none;gradientDirection=east;labelPosition=center;verticalLabelPosition=middle;rotation=0;spacingBottom=0;spacingLeft=0;spacingTop=0;" parent="1" vertex="1">
          <mxGeometry x="650" y="160" width="100" height="30" as="geometry" />
        </mxCell>
        <mxCell id="xSxSrdGMljulqEhlzFFl-37" value="Model&lt;br&gt;Registry" style="html=1;shadow=0;dashed=0;align=center;verticalAlign=middle;shape=mxgraph.arrows2.arrow;dy=0;dx=0;notch=0;rounded=0;strokeColor=none;strokeWidth=1;fillColor=#F19001;fontFamily=Helvetica;fontSize=12;fontColor=#FFFFFF;gradientColor=none;gradientDirection=east;labelPosition=center;verticalLabelPosition=middle;rotation=0;spacingBottom=0;spacingLeft=0;spacingTop=0;" parent="1" vertex="1">
          <mxGeometry x="600" y="80" width="60" height="30" as="geometry" />
        </mxCell>
        <mxCell id="xSxSrdGMljulqEhlzFFl-38" value="Load&lt;div&gt;Balancer&lt;/div&gt;" style="html=1;shadow=0;dashed=0;align=center;verticalAlign=middle;shape=mxgraph.arrows2.arrow;dy=0;dx=0;notch=0;rounded=0;strokeColor=none;strokeWidth=1;fillColor=#F19001;fontFamily=Helvetica;fontSize=12;fontColor=#FFFFFF;gradientColor=none;gradientDirection=east;labelPosition=center;verticalLabelPosition=middle;rotation=0;spacingBottom=0;spacingLeft=0;spacingTop=0;" parent="1" vertex="1">
          <mxGeometry x="680" y="80" width="60" height="30" as="geometry" />
        </mxCell>
        <mxCell id="xSxSrdGMljulqEhlzFFl-39" style="edgeStyle=orthogonalEdgeStyle;rounded=0;orthogonalLoop=1;jettySize=auto;html=1;exitX=0;exitY=0;exitDx=20;exitDy=120;exitPerimeter=0;entryX=0;entryY=0;entryDx=30;entryDy=30;entryPerimeter=0;endArrow=none;startFill=0;fontSize=12;" parent="1" source="xSxSrdGMljulqEhlzFFl-33" target="xSxSrdGMljulqEhlzFFl-38" edge="1">
          <mxGeometry relative="1" as="geometry">
            <Array as="points">
              <mxPoint x="610" y="120" />
              <mxPoint x="710" y="120" />
            </Array>
          </mxGeometry>
        </mxCell>
        <mxCell id="xSxSrdGMljulqEhlzFFl-40" style="edgeStyle=orthogonalEdgeStyle;rounded=0;orthogonalLoop=1;jettySize=auto;html=1;exitX=0;exitY=0;exitDx=20;exitDy=120;exitPerimeter=0;entryX=0;entryY=0;entryDx=30;entryDy=30;entryPerimeter=0;endArrow=none;startFill=0;fontSize=12;" parent="1" source="xSxSrdGMljulqEhlzFFl-33" target="xSxSrdGMljulqEhlzFFl-37" edge="1">
          <mxGeometry relative="1" as="geometry">
            <Array as="points">
              <mxPoint x="610" y="120" />
              <mxPoint x="630" y="120" />
            </Array>
          </mxGeometry>
        </mxCell>
        <mxCell id="xSxSrdGMljulqEhlzFFl-42" style="edgeStyle=orthogonalEdgeStyle;rounded=0;orthogonalLoop=1;jettySize=auto;html=1;exitX=0;exitY=0.5;exitDx=0;exitDy=0;exitPerimeter=0;entryX=0;entryY=0.707;entryDx=0;entryDy=0;entryPerimeter=0;endArrow=none;startFill=0;fontSize=12;" parent="1" source="xSxSrdGMljulqEhlzFFl-36" target="xSxSrdGMljulqEhlzFFl-33" edge="1">
          <mxGeometry relative="1" as="geometry" />
        </mxCell>
        <mxCell id="xSxSrdGMljulqEhlzFFl-43" style="edgeStyle=orthogonalEdgeStyle;rounded=0;orthogonalLoop=1;jettySize=auto;html=1;exitX=0;exitY=0.5;exitDx=0;exitDy=0;exitPerimeter=0;endArrow=none;startFill=0;entryX=-0.001;entryY=0.293;entryDx=0;entryDy=0;entryPerimeter=0;fontSize=12;" parent="1" source="xSxSrdGMljulqEhlzFFl-35" target="xSxSrdGMljulqEhlzFFl-33" edge="1">
          <mxGeometry relative="1" as="geometry">
            <mxPoint x="630" y="225" as="targetPoint" />
          </mxGeometry>
        </mxCell>
        <mxCell id="xSxSrdGMljulqEhlzFFl-44" value="Prompt Store" style="html=1;shadow=0;dashed=0;align=center;verticalAlign=middle;shape=mxgraph.arrows2.arrow;dy=0;dx=0;notch=0;rounded=0;strokeColor=none;strokeWidth=1;fillColor=#8D029D;fontFamily=Helvetica;fontSize=12;fontColor=#FFFFFF;gradientColor=none;gradientDirection=east;" parent="1" vertex="1">
          <mxGeometry x="540" y="320" width="100" height="40" as="geometry" />
        </mxCell>
        <mxCell id="xSxSrdGMljulqEhlzFFl-45" value="Data Sources" style="html=1;shadow=0;dashed=0;align=center;verticalAlign=middle;shape=mxgraph.arrows2.arrow;dy=0;dx=0;notch=0;rounded=0;strokeColor=none;strokeWidth=1;fillColor=#AD0002;fontFamily=Helvetica;fontSize=12;fontColor=#FFFFFF;gradientColor=none;gradientDirection=east;" parent="1" vertex="1">
          <mxGeometry x="540" y="390" width="100" height="40" as="geometry" />
        </mxCell>
        <mxCell id="xSxSrdGMljulqEhlzFFl-46" style="edgeStyle=orthogonalEdgeStyle;rounded=0;orthogonalLoop=1;jettySize=auto;html=1;exitX=1;exitY=0.5;exitDx=0;exitDy=0;exitPerimeter=0;entryX=0;entryY=0.5;entryDx=0;entryDy=0;entryPerimeter=0;strokeColor=#8D029D;fontSize=12;" parent="1" source="xSxSrdGMljulqEhlzFFl-13" target="xSxSrdGMljulqEhlzFFl-44" edge="1">
          <mxGeometry relative="1" as="geometry">
            <Array as="points">
              <mxPoint x="490" y="105" />
              <mxPoint x="490" y="340" />
            </Array>
          </mxGeometry>
        </mxCell>
        <mxCell id="xSxSrdGMljulqEhlzFFl-47" style="edgeStyle=orthogonalEdgeStyle;rounded=0;orthogonalLoop=1;jettySize=auto;html=1;entryX=0;entryY=0.5;entryDx=0;entryDy=0;entryPerimeter=0;strokeColor=#8D029D;fontSize=12;" parent="1" source="xSxSrdGMljulqEhlzFFl-9" target="xSxSrdGMljulqEhlzFFl-44" edge="1">
          <mxGeometry relative="1" as="geometry">
            <Array as="points">
              <mxPoint x="490" y="150" />
              <mxPoint x="490" y="340" />
            </Array>
          </mxGeometry>
        </mxCell>
        <mxCell id="xSxSrdGMljulqEhlzFFl-48" style="edgeStyle=orthogonalEdgeStyle;rounded=0;orthogonalLoop=1;jettySize=auto;html=1;entryX=0;entryY=0.5;entryDx=0;entryDy=0;entryPerimeter=0;strokeColor=#8D029D;fontSize=12;" parent="1" source="xSxSrdGMljulqEhlzFFl-11" target="xSxSrdGMljulqEhlzFFl-44" edge="1">
          <mxGeometry relative="1" as="geometry">
            <Array as="points">
              <mxPoint x="490" y="255" />
              <mxPoint x="490" y="340" />
            </Array>
          </mxGeometry>
        </mxCell>
        <mxCell id="xSxSrdGMljulqEhlzFFl-50" style="edgeStyle=orthogonalEdgeStyle;rounded=0;orthogonalLoop=1;jettySize=auto;html=1;entryX=0;entryY=0.5;entryDx=0;entryDy=0;entryPerimeter=0;strokeColor=#AD0002;fontSize=12;" parent="1" source="xSxSrdGMljulqEhlzFFl-13" target="xSxSrdGMljulqEhlzFFl-45" edge="1">
          <mxGeometry relative="1" as="geometry">
            <Array as="points">
              <mxPoint x="480" y="110" />
              <mxPoint x="480" y="410" />
            </Array>
          </mxGeometry>
        </mxCell>
        <mxCell id="xSxSrdGMljulqEhlzFFl-51" style="edgeStyle=orthogonalEdgeStyle;rounded=0;orthogonalLoop=1;jettySize=auto;html=1;entryX=0;entryY=0.5;entryDx=0;entryDy=0;entryPerimeter=0;strokeColor=#AD0002;fontSize=12;" parent="1" source="xSxSrdGMljulqEhlzFFl-9" target="xSxSrdGMljulqEhlzFFl-45" edge="1">
          <mxGeometry relative="1" as="geometry">
            <Array as="points">
              <mxPoint x="480" y="160" />
              <mxPoint x="480" y="410" />
            </Array>
          </mxGeometry>
        </mxCell>
        <mxCell id="xSxSrdGMljulqEhlzFFl-52" style="edgeStyle=orthogonalEdgeStyle;rounded=0;orthogonalLoop=1;jettySize=auto;html=1;entryX=1;entryY=0.5;entryDx=0;entryDy=0;entryPerimeter=0;strokeColor=#F19001;fontSize=12;" parent="1" source="xSxSrdGMljulqEhlzFFl-13" target="xSxSrdGMljulqEhlzFFl-32" edge="1">
          <mxGeometry relative="1" as="geometry">
            <Array as="points">
              <mxPoint x="500" y="100" />
              <mxPoint x="500" y="200" />
            </Array>
          </mxGeometry>
        </mxCell>
        <mxCell id="xSxSrdGMljulqEhlzFFl-53" style="edgeStyle=orthogonalEdgeStyle;rounded=0;orthogonalLoop=1;jettySize=auto;html=1;entryX=1;entryY=0.5;entryDx=0;entryDy=0;entryPerimeter=0;strokeColor=#F19001;fontSize=12;" parent="1" source="xSxSrdGMljulqEhlzFFl-12" target="xSxSrdGMljulqEhlzFFl-32" edge="1">
          <mxGeometry relative="1" as="geometry">
            <Array as="points">
              <mxPoint x="500" y="305" />
              <mxPoint x="500" y="200" />
            </Array>
          </mxGeometry>
        </mxCell>
        <mxCell id="xSxSrdGMljulqEhlzFFl-54" style="edgeStyle=orthogonalEdgeStyle;rounded=0;orthogonalLoop=1;jettySize=auto;html=1;entryX=1;entryY=0.5;entryDx=0;entryDy=0;entryPerimeter=0;strokeColor=#F19001;fontSize=12;" parent="1" source="xSxSrdGMljulqEhlzFFl-11" target="xSxSrdGMljulqEhlzFFl-32" edge="1">
          <mxGeometry relative="1" as="geometry">
            <Array as="points">
              <mxPoint x="500" y="255" />
              <mxPoint x="500" y="200" />
            </Array>
          </mxGeometry>
        </mxCell>
        <mxCell id="xSxSrdGMljulqEhlzFFl-57" value="Legende:" style="text;html=1;align=center;verticalAlign=middle;whiteSpace=wrap;rounded=0;labelPosition=center;verticalLabelPosition=middle;fontStyle=1" parent="1" vertex="1">
          <mxGeometry x="60" y="500" width="60" height="30" as="geometry" />
        </mxCell>
        <mxCell id="xSxSrdGMljulqEhlzFFl-58" style="edgeStyle=orthogonalEdgeStyle;rounded=0;orthogonalLoop=1;jettySize=auto;html=1;exitX=0;exitY=0.5;exitDx=0;exitDy=0;exitPerimeter=0;endArrow=none;startFill=1;entryX=-0.001;entryY=0.293;entryDx=0;entryDy=0;entryPerimeter=0;endFill=1;startArrow=classic;strokeColor=#F19001;" parent="1" edge="1">
          <mxGeometry relative="1" as="geometry">
            <mxPoint x="170" y="514.94" as="sourcePoint" />
            <mxPoint x="150" y="514.94" as="targetPoint" />
          </mxGeometry>
        </mxCell>
        <mxCell id="xSxSrdGMljulqEhlzFFl-59" value="Model Usage" style="text;html=1;align=left;verticalAlign=middle;whiteSpace=wrap;rounded=0;labelPosition=left;verticalLabelPosition=middle;" parent="1" vertex="1">
          <mxGeometry x="260" y="500" width="80" height="30" as="geometry" />
        </mxCell>
        <mxCell id="xSxSrdGMljulqEhlzFFl-60" style="edgeStyle=orthogonalEdgeStyle;rounded=0;orthogonalLoop=1;jettySize=auto;html=1;exitX=0;exitY=0.5;exitDx=0;exitDy=0;exitPerimeter=0;endArrow=none;startFill=1;entryX=-0.001;entryY=0.293;entryDx=0;entryDy=0;entryPerimeter=0;endFill=1;startArrow=classic;" parent="1" edge="1">
          <mxGeometry relative="1" as="geometry">
            <mxPoint x="170" y="534.94" as="sourcePoint" />
            <mxPoint x="150" y="534.94" as="targetPoint" />
          </mxGeometry>
        </mxCell>
        <mxCell id="xSxSrdGMljulqEhlzFFl-61" value="Service Usage" style="text;html=1;align=left;verticalAlign=middle;whiteSpace=wrap;rounded=0;labelPosition=left;verticalLabelPosition=middle;" parent="1" vertex="1">
          <mxGeometry x="260" y="520" width="80" height="30" as="geometry" />
        </mxCell>
        <mxCell id="xSxSrdGMljulqEhlzFFl-62" style="edgeStyle=orthogonalEdgeStyle;rounded=0;orthogonalLoop=1;jettySize=auto;html=1;exitX=0;exitY=0.5;exitDx=0;exitDy=0;exitPerimeter=0;endArrow=none;startFill=1;entryX=-0.001;entryY=0.293;entryDx=0;entryDy=0;entryPerimeter=0;endFill=1;startArrow=classic;strokeColor=#8D029D;" parent="1" edge="1">
          <mxGeometry relative="1" as="geometry">
            <mxPoint x="170" y="554.94" as="sourcePoint" />
            <mxPoint x="150" y="554.94" as="targetPoint" />
          </mxGeometry>
        </mxCell>
        <mxCell id="xSxSrdGMljulqEhlzFFl-63" value="Prompt Usage" style="text;html=1;align=left;verticalAlign=middle;whiteSpace=wrap;rounded=0;labelPosition=left;verticalLabelPosition=middle;" parent="1" vertex="1">
          <mxGeometry x="260" y="540" width="80" height="30" as="geometry" />
        </mxCell>
        <mxCell id="xSxSrdGMljulqEhlzFFl-64" style="edgeStyle=orthogonalEdgeStyle;rounded=0;orthogonalLoop=1;jettySize=auto;html=1;exitX=0;exitY=0.5;exitDx=0;exitDy=0;exitPerimeter=0;endArrow=none;startFill=1;entryX=-0.001;entryY=0.293;entryDx=0;entryDy=0;entryPerimeter=0;endFill=1;startArrow=classic;strokeColor=#AD0002;" parent="1" edge="1">
          <mxGeometry relative="1" as="geometry">
            <mxPoint x="170" y="574.94" as="sourcePoint" />
            <mxPoint x="150" y="574.94" as="targetPoint" />
          </mxGeometry>
        </mxCell>
        <mxCell id="xSxSrdGMljulqEhlzFFl-65" value="Data Usage" style="text;html=1;align=left;verticalAlign=middle;whiteSpace=wrap;rounded=0;labelPosition=left;verticalLabelPosition=middle;" parent="1" vertex="1">
          <mxGeometry x="260" y="560" width="80" height="30" as="geometry" />
        </mxCell>
      </root>
    </mxGraphModel>
  </diagram>
</mxfile>
